<?xml version="1.0" encoding="UTF-8"?>
<svg id="Layer_1" data-name="Layer 1" xmlns="http://www.w3.org/2000/svg" viewBox="0 0 48 48">
  <path id="_6ewNjJ.tif" data-name="6ewNjJ.tif" d="M42.43,22.8v2.51c-.29,2.74-1.02,5.43-2.4,7.84-.23.41-1.11,2.11-1.63,1.24-.32-.53.42-1.27.68-1.75,2.98-5.59,3.13-11.81-.1-17.36-.16-.51.37-.9.82-.63.22.13.98,1.75,1.13,2.09.78,1.81,1.38,4.11,1.5,6.06ZM36.02,21.71c-.59.28-1.06.02-1.67.12-1.49.25-.69,2.67-1.07,3.67-.29.78-1.42,1.21-1.57,1.92-.17.83.42,1.07.67,1.79.29.82.27,2.8-.85,2.96-1.55.22-2.18-3.56-2.66-3.56-.48.6-.82,1.51-1.71,1.6-1.2.12-1.52-1.09-2.72-.89-.13.12.85,1.87.09,2.55-.64.59-2.02-.17-2.51-.72-.49-.55-.49-1.19-.76-1.83-.45.56-1.23,1.62-2.02.94-.65-.56-.15-2.06-.53-2.82-1.2,1.01-2.28,1.08-3.71.54-1.38-.52-3.48-2.3-3.69-3.83-.16-1.21.34-3.91.79-5.07.51-1.33,1.86-1.54,2.72-.41.59-.49.84-1.85,1.71-1.96.46-.06,1.53.24,2.02.38,1.06.29,2.2.9,3.27,1.02,1.08.12,3.81-.33,4.39.71.53.95-.54,1.54-.53,2.32,0,.4.49.88.54,1.3.78-.78.77-2.72,1.98-3.07,1.35-.4,1.62.86,1.64,1.91.3-.31.56-.73.85-1.03.74-.76,1.31-.9,1.81-1.95.5-1.06.74-3.29,2.48-2.07.37.26,1.55,1.64,1.53,2.04-.02.37-.58.64-.89.77.06.17.33.15.49.27.81.57.84,1.96-.1,2.41ZM34.15,20.02c-.82-.62.52-1.61,1.02-1.93.05-.2-.86-1.16-1.07-1.02-.31.88-.59,1.89-1.18,2.62-.43.54-1.06.87-1.55,1.4-.56.61-1.31,2.42-2.28,1.36-.49-.54-.28-1.15-.36-1.76-.02-.11-.04-.37-.21-.32-.61.26-1.12,4.18-2.73,3.17-.32-.2-1.08-1.69-1.15-2.07-.15-.87.36-1.41.6-2.17-1.05-.2-2.13,0-3.18-.09-1.83-.14-3.51-1.25-5.35-1.44-.58.74-.94,2.2-2.14,1.95-.62-.13-1.08-1.36-1.49-.2-.35.98-.83,3.37-.71,4.37.18,1.49,2.82,3.46,4.31,3.36.85-.06,1.24-.83,1.84-.94,1.27-.24,1.55,1.94,1.43,2.83.58-.42.97-1.87,1.91-1.33.64.36.35,2.08,1.04,2.71.1.09.84.6.8.28-.09-.71-.58-1.16-.26-1.96.37-.92,2.03-.63,2.71-.22.32.2.4.57.89.51.44-.06.79-1.42,1.47-1.57,1.69-.39,1.92,2.3,2.68,3.27.06.07,0,.16.2.11.52-1.75-1.38-2.12-.7-3.96.32-.87,1.03-1.17,1.55-1.85.12-1.91-.3-4.17,2.23-4.39.38-.03.75.08,1.11,0,.11-1.05-.87-.26-1.47-.71ZM9.67,33.87c-3.26-4.87-3.95-10.97-1.73-16.44.17-.42,1.1-2.08,1.12-2.29.02-.39-.36-.67-.74-.56-.22.06-.73,1.03-.86,1.29-2.3,4.57-2.49,10.16-.61,14.91.3.75,1.46,3.27,2.03,3.7.48.36.93-.08.79-.61ZM15.68,10.4l-2.99-3.06-1.27,1.09,1.13,2.46-2.21-1.51c-.05,0-.73.56-.83.66-.17.16-.54.41-.38.65l2.57,3.25c.13-.26.83-.53.75-.83l-1.87-2.39,2.5,1.75h.18s.6-.64.6-.64l-1.41-3.09,2.28,2.5.94-.85ZM38.45,10.09l-1.83,1.97.77-2.91-1.08-1.03-3,3.09.84.75,2.02-2.14-.86,3.27.98.84,2.85-2.98.02-.15-.72-.71ZM24.94,6.7c-.19.93-1.53,1.78-2.42,1.78h-1.74l-.26-4.15c.07-.19,1.36-.32,1.64-.33,1.75-.06,3.19.7,2.78,2.69ZM21.76,4.99l.18,2.5c2.51.24,2.29-3.12-.18-2.5ZM17.43,38.37c-.14.03-.57,1.08-.72,1.25-.09.1-.1.09-.23.05-.28-.08-.87-.57-1.21-.68l.67-1.39-1.02-.56-2.1,3.82,1.16.54.76-1.51,1.39.71-.71,1.56,1.07.59,1.96-3.8-1.01-.58ZM28.91,39.18l-1.15.18c-.13.82,1.12,3.39-.24,3.57-1.26.16-1.08-2.42-1.39-3.21l-1.14.18c.28,1.91.28,4.66,3.03,3.88,2.2-.62,1.09-3.02.89-4.6ZM39.21,37.25l-.94.92-.9-.52-.93.73.42,1.09-.97.78-1.87-4.07,1.21-1.1,3.97,2.18ZM36.37,36.95c-.11-.08-1.14-.69-1.19-.64l.76,1.34c.23-.18.79-.44.43-.7ZM20.24,8.66l-1.28.46-.6-.77c-.22-.12-.97.29-1.21.41l.14,1.07-1.25.45-.25-4.55c.34-.08,1.33-.68,1.6-.51l2.86,3.45ZM17.73,7.45l-.98-1.21.18,1.61.8-.4ZM29.63,5.71l.09-.94-2.95-.67-.9,4.3,3.13.63.18-.98-1.97-.4.18-.67,1.7.32.26-.91-1.68-.41.08-.61,1.87.36ZM19.26,39.17l-.77,4.21,3.09.62.17-.84-1.96-.5.18-.71,1.7.32.17-.95-1.61-.31c-.1-.06-.02-.69.19-.64l1.64.32c.2-.06.23-.77.24-.98l-3.04-.54ZM33.07,39.36c-.34-.05-1.77.22-1.83-.06.14-.57.92-.75,1.43-.76l-.09-.98c-1.19-.05-3.13,1.19-2.31,2.54.61,1,2.37.17,2.59.47.41.54-1.22,1.05-1.62.93l.18.98c.84.14,2.49-.74,2.66-1.58.15-.73-.26-1.43-1.02-1.54ZM11.71,34.08l-.68.66.89.89-2.32,2.34c-.02.09.81,1.09,1.03.75l2.1-2.2.95.76.64-.67-2.61-2.54ZM34.47,6.92l-.87-.48-2.17,3.63c-.01.17.92.72,1.05.64l2.06-3.63-.08-.16Z" fill="#4d4d4c"/>
</svg>