<?xml version="1.0" encoding="UTF-8"?>
<svg id="Layer_1" data-name="Layer 1" xmlns="http://www.w3.org/2000/svg" viewBox="0 0 48 48">
  <path id="Layer_1-2" data-name="Layer_1" d="M33.87,28.58h-5.24v3.62h10.08v-9.26s-.08.01-.13.01h-5.62c-.39,0-.7-.31-.7-.7s.31-.7.7-.7h5.62s.08,0,.13.01v-9.26h-10.08v1.87c0,.39-.31.7-.7.7s-.7-.31-.7-.7v-1.87h-10.08v9.25h10.08v-3.95c0-.39.31-.7.7-.7s.7.31.7.7v5.94c0,.39-.31.7-.7.7s-.7-.31-.7-.7v-.58h-10.08v9.25h10.08v-4.32c0-.4.33-.7.7-.7h5.94c.39,0,.7.31.7.7s-.31.7-.7.7ZM42.41,44H13.45l-.21-.03-7.84-2.29c-.67-.2-.67-1.15,0-1.35l7.84-2.28c.07-.02.14-.03.21-.03h28.96c.39,0,.7.31.7.7v4.58c0,.39-.31.7-.7.7ZM37.03,42.59v-3.18h-1.27v3.18h1.27ZM38.44,42.59h3.27v-3.18h-3.27v3.18ZM14.15,42.59h20.21v-3.18H14.15v3.18ZM8.1,41l4.65,1.36v-2.7l-4.65,1.35ZM13.45,33.24c-.39,0-.7-.31-.7-.7,0-1.78-1.45-3.23-3.22-3.23s-3.23,1.45-3.23,3.23c0,1.45,1.18,2.63,2.63,2.63h32.79V9.34H14.15v23.2c0,.39-.31.7-.7.7ZM4.89,8.63c0-2.55,2.08-4.63,4.63-4.63,2.31,0,4.23,1.71,4.58,3.93h28.31c.39,0,.7.31.7.7v27.23c0,.39-.31.7-.7.7H8.92c-2.23,0-4.03-1.81-4.03-4.03V8.63ZM9.52,27.9c1.25,0,2.39.5,3.22,1.31V8.63c0-1.78-1.45-3.23-3.22-3.23s-3.23,1.45-3.23,3.23v20.58c.83-.81,1.97-1.31,3.23-1.31ZM39.42,33.6h-22.97c-.39,0-.7-.31-.7-.7V11.59c0-.39.31-.7.7-.7h22.97c.39,0,.7.31.7.7v21.31c0,.39-.31.7-.7.7Z" fill="#4d4d4c"/>
</svg>