<?xml version="1.0" encoding="UTF-8"?>
<svg id="Layer_1" data-name="Layer 1" xmlns="http://www.w3.org/2000/svg" viewBox="0 0 48 48">
  <path id="sfxk19.tif" d="M42.16,17.43c-2.7,1.38-6.07,2.23-8.7,3.64-.46.25-.55.48-.82.9l-.88.09c1.4-1.57,2.47-3.5,2.79-5.61C36.24,5.19,21.85-.59,15.37,8.44c-3.55,4.95-2.27,10.74,2.07,14.61.05.05.15,0,.1.18-.72.03-1.43,0-2.13-.16-.28-.55-.34-.72-.89-1-2.72-1.4-5.98-2.31-8.75-3.66-.84-.16-1.42.26-1.74,1v13.04c.23.58.45.8,1.02,1.05.81.35,3.41,1.3,4.19,1.43.49.08.93-.22,1.06-.2.06.01,1.06.66,1.06.73-1.16,1.76.41,3.79,2.42,3.48.27,1.22,1.47,1.87,2.67,1.66.37,1.25,1.44,1.85,2.72,1.7.23.87.96,1.48,1.81,1.71h.78c.59-.21,1.23-.49,1.49-1.09l2.03,1.09h.86c1.13-.29,2.01-1.2,1.95-2.42,1.59.18,2.87-1.06,2.73-2.66,1.44.04,2.36-1.23,2.38-2.58.56-.11,1.1-.27,1.52-.66.31-.29.46-.8.71-1.01.12-.1,2.13-1.01,2.25-1.02.26-.02.52.34,1.1.24.88-.15,3.52-1.1,4.37-1.49.44-.2.67-.44.81-.91v-13.17c-.28-.75-1.01-1.14-1.81-.9ZM15.18,17.67c-2.25-6.86,3.65-13.53,10.72-12.13,7.7,1.53,10.13,11.66,3.9,16.41-.61-.13-1.23-.31-1.81-.53-.61-.23-1.37-.76-2.05-.76h-1.21v-.7c1.63-.18,3.37-1.27,3.28-3.09-.08-1.73-1.86-2.33-3.28-2.69v-3.44c.66.19,1.57.45,1.85,1.15.16.39.06,1.02.61,1.11,1.03.16.89-.98.62-1.64-.48-1.14-1.9-1.83-3.08-1.96.24-1.87-1.65-1.87-1.41,0-1.66.2-3.42,1.29-3.28,3.17.12,1.67,1.9,2.27,3.28,2.61v3.44c-.67-.19-1.61-.46-1.88-1.21-.17-.47-.09-1.17-.89-1.05-.76.11-.52,1.14-.32,1.64.48,1.15,1.9,1.84,3.08,1.96v.7s-1.13,0-1.13,0c-.69,0-1.72.69-2.1,1.26-.36.53-.22,1.09-1.01.68-1.69-.88-3.32-3.14-3.9-4.92ZM24.73,18.62v-3.05c.67.13,1.93.56,1.96,1.37.04,1.03-1.13,1.48-1.96,1.68ZM23.32,10.73v3.05c-.67-.13-1.93-.56-1.96-1.37-.04-1.03,1.14-1.48,1.96-1.68ZM9.57,33.53l-4.21-1.43v-12.38l8.59,3.56-4.39,10.25ZM14.07,37.12c-.72.92-1.93.35-1.74-.64.04-.2,1.13-2,1.31-2.21.35-.4.98-.47,1.38-.09.26.25.32.65.22.99-.06.21-1,1.71-1.18,1.94ZM16.67,38.95c-.67.72-1.76.18-1.62-.76.04-.24,1.15-2.08,1.35-2.28.39-.39,1.11-.37,1.43.12.29.45.18.72-.04,1.16-.16.33-.89,1.53-1.12,1.77ZM19.27,40.76c-.69.61-1.76-.09-1.45-1.05.1-.32.98-1.73,1.21-1.99.21-.24.41-.38.74-.39.75-.01,1.04.62.86,1.29-.05.17-1.22,2.02-1.37,2.15ZM23.14,40.49c-.03.28-.8,1.55-1.02,1.8-.7.8-1.82.18-1.66-.73.03-.19.88-1.6,1.04-1.77.12-.13.31-.26.48-.3.64-.13,1.23.34,1.16,1ZM32.75,34.92c-.48-.1-1.15-.98-1.65-.21-.43.66.29.87.54,1.25.58.88-.27,1.91-1.29,1.6-.4-.12-1.04-.91-1.52-.28-.54.71.33.98.54,1.41.4.85-.24,1.68-1.16,1.55-.6-.09-1.47-1.27-2.08-.58-.62.7.49,1.07.61,1.66.17.82-.48,1.52-1.31,1.31-.16-.04-1.38-.79-1.4-.87,1.12-1.63.02-3.69-1.96-3.66-.15-1.42-1.4-2.37-2.8-2.08-.29-1.28-1.48-1.87-2.73-1.72-.63-2.3-3.6-2.2-4.42-.06l-1.11-.67,3.97-9.26c1.46.39,2.92.25,4.37-.08-.13.45-.23.93-.39,1.37-.49,1.4-1.72,2.88.16,3.97,2.3,1.34,4.55-.34,5.5-2.45l9.17,5.97c.79.85.14,2.06-1.03,1.81ZM35.35,33.22c-.14-.46-.41-.9-.79-1.2l-10.05-6.51c-.81-.2-1.03.93-1.36,1.49-.53.88-1.16,1.7-2.29,1.7-.49,0-1.55-.22-1.43-.88.32-.62.6-1.26.82-1.92.3-.89.41-1.83.67-2.69.22-.72.76-1.14,1.51-1.22.82-.09,2.37-.08,3.19-.01.9.07,2,.77,2.94,1.04,1.45.41,2.95.5,4.44.25l3.97,9.25-1.63.71ZM42.62,31.14l-4.09,1.38-4.43-10.27,8.6-3.56-.07,12.44Z" fill="#4d4d4c"/>
</svg>