<?xml version="1.0" encoding="UTF-8"?>
<svg id="Layer_1" data-name="Layer 1" xmlns="http://www.w3.org/2000/svg" viewBox="0 0 48 48">
  <path id="Layer_1-2" data-name="Layer_1" d="M30.65,11.7c-.29,0-.55-.22-.63-.48-.1-.36-.31-.65-.67-.84-1.88-1.08-6.59-.07-8.23.41-.26.07-.53-.02-.7-.24s-.17-.51-.02-.72c2.07-3.17,7.84-3.87,8.08-3.9h.07l2.65-.02v-1.27c0-.34.29-.63.65-.63h3.61c.34,0,.63.26.65.6l.05,1.25,1.2-.02h.02c.31,0,.6.26.63.58.05.29.34.46.41.48t.05.02c.34.02,1.54.02,1.85,0l.02-.02c.29-.07.34-.19.43-.38s.29-.58.77-.6l2.31-.07c.17,0,.34.05.46.17.14.12.19.29.19.48v4.47c0,.36-.29.65-.63.65h-2.02c-.24,0-.46-.14-.58-.36-.14-.29-.48-.6-.7-.75-.34-.07-1.61-.1-1.92-.05-.19.07-.65.53-.94.89-.12.17-.29.26-.51.26l-.96.02.1,15.78h7.53c.36,0,.65.29.65.65v15.3c0,.36-.29.65-.65.65H4.12c-.36,0-.65-.29-.65-.65v-15.3c0-.36.29-.65.65-.65h9.21v-14.74c0-.36.29-.65.65-.65h4.57c.34,0,.63.29.63.65v14.74h3.61v-5.84c-1.18-.87-1.83-2.21-1.83-3.7,0-1.73,1.01-3.34,2.6-4.09.22-.1.43-.1.63.02s.29.34.29.55v2.89h1.85v-2.89c0-.22.12-.43.29-.55.19-.12.43-.12.63-.02,1.64.77,2.69,2.38,2.69,4.09,0,1.4-.65,2.72-1.76,3.61v5.94h3.2l-.07-15.73-.65.02h0ZM38.73,36.33h-6.47c-.36,0-.65-.29-.65-.65v-7h-15.25v7c0,.36-.29.65-.65.65h-6.47c-.36,0-.65-.29-.65-.65v-7h-3.85v14.05h38.48v-14.05h-3.87v7c0,.36-.29.65-.63.65ZM32.89,35.05h5.2v-6.37h-5.2v6.37ZM9.89,35.05h5.17v-6.37h-5.17v6.37ZM24.08,27.4h2.79v-6.25c0-.22.12-.41.29-.53.91-.65,1.49-1.68,1.49-2.77,0-.87-.41-1.71-1.06-2.31v1.92c0,.58-.43,1.03-1.03,1.03h-2.24c-.63,0-1.13-.46-1.13-1.03v-1.9c-.6.6-.96,1.42-.96,2.29,0,1.18.55,2.21,1.54,2.84.19.12.31.31.31.53v6.18ZM14.61,27.4h3.3v-14.12h-3.3v14.12ZM9.58,4h7.29c1.3,0,2.31.99,2.31,2.24v2.09c0,.34-.29.63-.63.63h-8.35v6.66c.65.1,1.13.63,1.13,1.27v1.85c0,.65-.58,1.23-1.2,1.27v3.7c0,1.52-1.2,2.72-2.74,2.72s-2.72-1.2-2.72-2.72v-3.7c-.65-.05-1.2-.63-1.2-1.27v-1.85c0-.65.48-1.18,1.13-1.27V6.31c0-1.27,1.03-2.31,2.31-2.31h2.67ZM9.58,7.68h8.32v-1.44c0-.55-.46-.96-1.03-.96H6.91c-.51,0-1.03.41-1.03,1.03v9.31h3.05v-7.29h0v-.02h0v-.02h0v-.02h0v-.02h0v-.02h0v-.02h0l.02-.02h0v-.02h0v-.02h0l.02-.02h0v-.02h0v-.02h.02v-.02h0v-.02h.02v-.02h0l.02-.02h0v-.02h.02v-.02h.02v-.02h.02v-.02h.02v-.02h.02v-.02h.02l.02-.02h.02l.02-.02h.02v-.02h.05l.02-.02h.07l.02-.02h.12ZM5.95,20.02v3.7c0,.79.65,1.44,1.44,1.44s1.44-.65,1.44-1.44v-3.7h-2.89ZM4.77,18.74h5.24l.02-.02v-1.83h-5.29v1.83s.02.02.02.02ZM32.5,5.83h2.36l-.02-.55h-2.33v.55ZM32.57,11.7l.07,15.68,2.41-.05-.07-15.63h-2.41ZM38.71,10.45l-.02.02.02-.02ZM26.83,8.59c1.35,0,2.41.22,3.15.65.53.29.89.67,1.13,1.15l5.82-.07c.31-.38.87-.96,1.42-1.11h0c.29-.07,1.01-.07,1.42-.07,1.08.02,1.37.12,1.56.26.14.12.58.43.91.91h.99v-3.2l-1.35.05c-.14.29-.43.72-1.08.94-.19.07-.51.1-1.37.1-1.15,0-1.3-.05-1.4-.1h-.02c-.36-.12-.84-.46-1.08-.99l-8.32.07c-.34.05-3.37.46-5.51,1.8.36-.07.77-.12,1.18-.19.94-.14,1.78-.22,2.55-.22ZM40.46,10.37h0ZM40.46,10.37h0ZM38.8,7.15c.07.1.1.24.1.36,0-.14-.05-.26-.1-.36ZM40.06,7.05h0ZM40.06,7.05h0ZM40.06,7.05h0ZM38.28,6.89h0ZM38.28,6.89h0Z" fill="#4d4d4c"/>
</svg>