<?xml version="1.0" encoding="UTF-8"?>
<svg id="Layer_1" data-name="Layer 1" xmlns="http://www.w3.org/2000/svg" viewBox="0 0 48 48">
  <path d="M20.65,27.25v-1.68c0-.92-.75-1.68-1.68-1.68h-3.35c-.92,0-1.68.75-1.68,1.68v1.68h-1.68v-1.68c0-1.85,1.5-3.35,3.35-3.35h3.35c1.85,0,3.35,1.5,3.35,3.35v1.68h-1.68ZM22.33,17.19c0-1.85,1.5-3.35,3.35-3.35s3.35,1.5,3.35,3.35-1.5,3.35-3.35,3.35-3.35-1.5-3.35-3.35ZM24,17.19c0,.92.75,1.68,1.68,1.68s1.68-.75,1.68-1.68-.75-1.68-1.68-1.68-1.68.75-1.68,1.68ZM24.75,22.22c.3.52.54,1.08.69,1.68h1.91c.92,0,1.68.75,1.68,1.68v1.68h1.68v-1.68c0-1.85-1.5-3.35-3.35-3.35h-2.61ZM23.45,12.64l.4.3,1.83-1.41,1.82,1.41.42-.29-.74-2.25,1.84-1.07v-.51h-2.42l-.66-2.51h-.54l-.66,2.51h-2.43v.51l1.85,1.03-.73,2.28h0ZM6.7,12.64l.4.3,1.83-1.41,1.82,1.41.42-.29-.74-2.25,1.84-1.07v-.51h-2.42l-.66-2.51h-.54l-.66,2.51h-2.43v.51l1.85,1.03-.73,2.28h0ZM5.57,25.57c0-.92.75-1.68,1.68-1.68h1.91c.15-.6.39-1.16.69-1.68h-2.61c-1.85,0-3.35,1.5-3.35,3.35v1.68h1.68v-1.68ZM5.57,17.19c0-1.85,1.5-3.35,3.35-3.35s3.35,1.5,3.35,3.35-1.5,3.35-3.35,3.35-3.35-1.5-3.35-3.35ZM7.25,17.19c0,.92.75,1.68,1.68,1.68s1.68-.75,1.68-1.68-.75-1.68-1.68-1.68-1.68.75-1.68,1.68ZM17.3,20.55c-1.85,0-3.35-1.5-3.35-3.35s1.5-3.35,3.35-3.35,3.35,1.5,3.35,3.35-1.5,3.35-3.35,3.35ZM17.3,18.87c.92,0,1.68-.75,1.68-1.68s-.75-1.68-1.68-1.68-1.68.75-1.68,1.68.75,1.68,1.68,1.68ZM42.73,24.99c-1.65-1.55-4.46-1.43-5.94.28l-6.27,6.89c-.52-1.86-2.22-3.24-4.25-3.24H8.09c-2.31,0-4.19,1.88-4.19,4.19v10.89h1.68v-10.89c0-1.39,1.13-2.51,2.51-2.51h18.19c1.52,0,2.75,1.23,2.75,2.75,0,1.36-1.01,2.53-2.35,2.72l-9.48,1.23.22,1.66,9.49-1.24c1.7-.24,3.06-1.46,3.57-3.03l7.55-8.3c.9-1.02,2.58-1.11,3.58-.17,1.02.93,1.1,2.52.18,3.56l-12.66,14.21h2.24l11.67-13.1c1.53-1.71,1.39-4.36-.3-5.91h0ZM14.52,11.92l.5.38,2.29-1.77,2.28,1.76.52-.37-.92-2.81,2.3-1.33v-.64h-3.02l-.82-3.14h-.68l-.82,3.14h-3.04v.64l2.32,1.29-.91,2.84h0Z" fill="#4d4d4c"/>
</svg>